<svg xmlns="http://www.w3.org/2000/svg" xmlns:xlink="http://www.w3.org/1999/xlink" viewBox="0 0 1936 1760" width="1936" height="1760" preserveAspectRatio="xMidYMid meet" style="width: 100%; height: 100%; transform: translate3d(0px, 0px, 0px); content-visibility: visible;"><defs><clipPath id="__lottie_element_7200"><rect width="1936" height="1760" x="0" y="0"></rect></clipPath></defs><g clip-path="url(#__lottie_element_7200)"><g transform="matrix(0.949999988079071,0,0,0.949999988079071,698.7413940429688,367.0584716796875)" opacity="1" style="display: block;"><g opacity="1" transform="matrix(2,0,0,2,0,0)"><path fill="rgb(40,93,96)" fill-opacity="1" d=" M0,-8 C4.415200233459473,-8 8,-4.415200233459473 8,0 C8,4.415200233459473 4.415200233459473,8 0,8 C-4.415200233459473,8 -8,4.415200233459473 -8,0 C-8,-4.415200233459473 -4.415200233459473,-8 0,-8z"></path><path stroke-linecap="butt" stroke-linejoin="miter" fill-opacity="0" stroke-miterlimit="4" stroke="rgb(243,241,236)" stroke-opacity="1" stroke-width="0" d=" M0,-8 C4.415200233459473,-8 8,-4.415200233459473 8,0 C8,4.415200233459473 4.415200233459473,8 0,8 C-4.415200233459473,8 -8,4.415200233459473 -8,0 C-8,-4.415200233459473 -4.415200233459473,-8 0,-8z"></path></g></g><g transform="matrix(0.949999988079071,0,0,0.949999988079071,558.4614868164062,259.4870910644531)" opacity="1" style="display: block;"><g opacity="1" transform="matrix(2,0,0,2,0,0)"><path fill="rgb(40,93,96)" fill-opacity="1" d=" M0,-8 C4.415200233459473,-8 8,-4.415200233459473 8,0 C8,4.415200233459473 4.415200233459473,8 0,8 C-4.415200233459473,8 -8,4.415200233459473 -8,0 C-8,-4.415200233459473 -4.415200233459473,-8 0,-8z"></path><path stroke-linecap="butt" stroke-linejoin="miter" fill-opacity="0" stroke-miterlimit="4" stroke="rgb(243,241,236)" stroke-opacity="1" stroke-width="0" d=" M0,-8 C4.415200233459473,-8 8,-4.415200233459473 8,0 C8,4.415200233459473 4.415200233459473,8 0,8 C-4.415200233459473,8 -8,4.415200233459473 -8,0 C-8,-4.415200233459473 -4.415200233459473,-8 0,-8z"></path></g></g><g transform="matrix(0.949999988079071,0,0,0.949999988079071,965.5012817382812,1740.809814453125)" opacity="1" style="display: none;"><g opacity="1" transform="matrix(2,0,0,2,0,0)"><path fill="rgb(40,93,96)" fill-opacity="1" d=" M0,-8 C4.415200233459473,-8 8,-4.415200233459473 8,0 C8,4.415200233459473 4.415200233459473,8 0,8 C-4.415200233459473,8 -8,4.415200233459473 -8,0 C-8,-4.415200233459473 -4.415200233459473,-8 0,-8z"></path><path stroke-linecap="butt" stroke-linejoin="miter" fill-opacity="0" stroke-miterlimit="4" stroke="rgb(243,241,236)" stroke-opacity="1" stroke-width="0" d=" M0,-8 C4.415200233459473,-8 8,-4.415200233459473 8,0 C8,4.415200233459473 4.415200233459473,8 0,8 C-4.415200233459473,8 -8,4.415200233459473 -8,0 C-8,-4.415200233459473 -4.415200233459473,-8 0,-8z"></path></g></g><g transform="matrix(0.949999988079071,0,0,0.949999988079071,965.5012817382812,1740.809814453125)" opacity="1" style="display: none;"><g opacity="1" transform="matrix(2,0,0,2,0,0)"><path fill="rgb(40,93,96)" fill-opacity="1" d=" M0,-8 C4.415200233459473,-8 8,-4.415200233459473 8,0 C8,4.415200233459473 4.415200233459473,8 0,8 C-4.415200233459473,8 -8,4.415200233459473 -8,0 C-8,-4.415200233459473 -4.415200233459473,-8 0,-8z"></path><path stroke-linecap="butt" stroke-linejoin="miter" fill-opacity="0" stroke-miterlimit="4" stroke="rgb(243,241,236)" stroke-opacity="1" stroke-width="0" d=" M0,-8 C4.415200233459473,-8 8,-4.415200233459473 8,0 C8,4.415200233459473 4.415200233459473,8 0,8 C-4.415200233459473,8 -8,4.415200233459473 -8,0 C-8,-4.415200233459473 -4.415200233459473,-8 0,-8z"></path></g></g><g transform="matrix(0.949999988079071,0,0,0.949999988079071,149.28961181640625,399.74884033203125)" opacity="1" style="display: block;"><g opacity="1" transform="matrix(2,0,0,2,0,0)"><path fill="rgb(40,93,96)" fill-opacity="1" d=" M0,-8 C4.415200233459473,-8 8,-4.415200233459473 8,0 C8,4.415200233459473 4.415200233459473,8 0,8 C-4.415200233459473,8 -8,4.415200233459473 -8,0 C-8,-4.415200233459473 -4.415200233459473,-8 0,-8z"></path><path stroke-linecap="butt" stroke-linejoin="miter" fill-opacity="0" stroke-miterlimit="4" stroke="rgb(243,241,236)" stroke-opacity="1" stroke-width="0" d=" M0,-8 C4.415200233459473,-8 8,-4.415200233459473 8,0 C8,4.415200233459473 4.415200233459473,8 0,8 C-4.415200233459473,8 -8,4.415200233459473 -8,0 C-8,-4.415200233459473 -4.415200233459473,-8 0,-8z"></path></g></g><g transform="matrix(0.949999988079071,0,0,0.949999988079071,965.5025634765625,1740.99267578125)" opacity="1" style="display: none;"><g opacity="1" transform="matrix(2,0,0,2,0,0)"><path fill="rgb(40,93,96)" fill-opacity="1" d=" M0,-8 C4.415200233459473,-8 8,-4.415200233459473 8,0 C8,4.415200233459473 4.415200233459473,8 0,8 C-4.415200233459473,8 -8,4.415200233459473 -8,0 C-8,-4.415200233459473 -4.415200233459473,-8 0,-8z"></path><path stroke-linecap="butt" stroke-linejoin="miter" fill-opacity="0" stroke-miterlimit="4" stroke="rgb(243,241,236)" stroke-opacity="1" stroke-width="0" d=" M0,-8 C4.415200233459473,-8 8,-4.415200233459473 8,0 C8,4.415200233459473 4.415200233459473,8 0,8 C-4.415200233459473,8 -8,4.415200233459473 -8,0 C-8,-4.415200233459473 -4.415200233459473,-8 0,-8z"></path></g></g><g transform="matrix(0.949999988079071,0,0,0.949999988079071,965.5026245117188,1740.92919921875)" opacity="1" style="display: none;"><g opacity="1" transform="matrix(2,0,0,2,0,0)"><path fill="rgb(40,93,96)" fill-opacity="1" d=" M0,-8 C4.415200233459473,-8 8,-4.415200233459473 8,0 C8,4.415200233459473 4.415200233459473,8 0,8 C-4.415200233459473,8 -8,4.415200233459473 -8,0 C-8,-4.415200233459473 -4.415200233459473,-8 0,-8z"></path><path stroke-linecap="butt" stroke-linejoin="miter" fill-opacity="0" stroke-miterlimit="4" stroke="rgb(243,241,236)" stroke-opacity="1" stroke-width="0" d=" M0,-8 C4.415200233459473,-8 8,-4.415200233459473 8,0 C8,4.415200233459473 4.415200233459473,8 0,8 C-4.415200233459473,8 -8,4.415200233459473 -8,0 C-8,-4.415200233459473 -4.415200233459473,-8 0,-8z"></path></g></g><g transform="matrix(0.949999988079071,0,0,0.949999988079071,965.502685546875,1740.9080810546875)" opacity="1" style="display: none;"><g opacity="1" transform="matrix(2,0,0,2,0,0)"><path fill="rgb(40,93,96)" fill-opacity="1" d=" M0,-8 C4.415200233459473,-8 8,-4.415200233459473 8,0 C8,4.415200233459473 4.415200233459473,8 0,8 C-4.415200233459473,8 -8,4.415200233459473 -8,0 C-8,-4.415200233459473 -4.415200233459473,-8 0,-8z"></path><path stroke-linecap="butt" stroke-linejoin="miter" fill-opacity="0" stroke-miterlimit="4" stroke="rgb(243,241,236)" stroke-opacity="1" stroke-width="0" d=" M0,-8 C4.415200233459473,-8 8,-4.415200233459473 8,0 C8,4.415200233459473 4.415200233459473,8 0,8 C-4.415200233459473,8 -8,4.415200233459473 -8,0 C-8,-4.415200233459473 -4.415200233459473,-8 0,-8z"></path></g></g><g transform="matrix(0.949999988079071,0,0,0.949999988079071,965.6489868164062,155.4484100341797)" opacity="1" style="display: block;"><g opacity="1" transform="matrix(2,0,0,2,0,0)"><path fill="rgb(40,93,96)" fill-opacity="1" d=" M0,-8 C4.415200233459473,-8 8,-4.415200233459473 8,0 C8,4.415200233459473 4.415200233459473,8 0,8 C-4.415200233459473,8 -8,4.415200233459473 -8,0 C-8,-4.415200233459473 -4.415200233459473,-8 0,-8z"></path><path stroke-linecap="butt" stroke-linejoin="miter" fill-opacity="0" stroke-miterlimit="4" stroke="rgb(243,241,236)" stroke-opacity="1" stroke-width="0" d=" M0,-8 C4.415200233459473,-8 8,-4.415200233459473 8,0 C8,4.415200233459473 4.415200233459473,8 0,8 C-4.415200233459473,8 -8,4.415200233459473 -8,0 C-8,-4.415200233459473 -4.415200233459473,-8 0,-8z"></path></g></g><g transform="matrix(0.949999988079071,0,0,0.949999988079071,965.6489868164062,1731.5728759765625)" opacity="1" style="display: none;"><g opacity="1" transform="matrix(2,0,0,2,0,0)"><path fill="rgb(40,93,96)" fill-opacity="1" d=" M0,-8 C4.415200233459473,-8 8,-4.415200233459473 8,0 C8,4.415200233459473 4.415200233459473,8 0,8 C-4.415200233459473,8 -8,4.415200233459473 -8,0 C-8,-4.415200233459473 -4.415200233459473,-8 0,-8z"></path><path stroke-linecap="butt" stroke-linejoin="miter" fill-opacity="0" stroke-miterlimit="4" stroke="rgb(243,241,236)" stroke-opacity="1" stroke-width="0" d=" M0,-8 C4.415200233459473,-8 8,-4.415200233459473 8,0 C8,4.415200233459473 4.415200233459473,8 0,8 C-4.415200233459473,8 -8,4.415200233459473 -8,0 C-8,-4.415200233459473 -4.415200233459473,-8 0,-8z"></path></g></g><g transform="matrix(0.949999988079071,0,0,0.949999988079071,965.6489868164062,1731.50439453125)" opacity="1" style="display: none;"><g opacity="1" transform="matrix(2,0,0,2,0,0)"><path fill="rgb(40,93,96)" fill-opacity="1" d=" M0,-8 C4.415200233459473,-8 8,-4.415200233459473 8,0 C8,4.415200233459473 4.415200233459473,8 0,8 C-4.415200233459473,8 -8,4.415200233459473 -8,0 C-8,-4.415200233459473 -4.415200233459473,-8 0,-8z"></path><path stroke-linecap="butt" stroke-linejoin="miter" fill-opacity="0" stroke-miterlimit="4" stroke="rgb(243,241,236)" stroke-opacity="1" stroke-width="0" d=" M0,-8 C4.415200233459473,-8 8,-4.415200233459473 8,0 C8,4.415200233459473 4.415200233459473,8 0,8 C-4.415200233459473,8 -8,4.415200233459473 -8,0 C-8,-4.415200233459473 -4.415200233459473,-8 0,-8z"></path></g></g><g transform="matrix(0.949999988079071,0,0,0.949999988079071,1413.6397705078125,192.51321411132812)" opacity="1" style="display: block;"><g opacity="1" transform="matrix(2,0,0,2,0,0)"><path fill="rgb(40,93,96)" fill-opacity="1" d=" M0,-8 C4.415200233459473,-8 8,-4.415200233459473 8,0 C8,4.415200233459473 4.415200233459473,8 0,8 C-4.415200233459473,8 -8,4.415200233459473 -8,0 C-8,-4.415200233459473 -4.415200233459473,-8 0,-8z"></path><path stroke-linecap="butt" stroke-linejoin="miter" fill-opacity="0" stroke-miterlimit="4" stroke="rgb(243,241,236)" stroke-opacity="1" stroke-width="0" d=" M0,-8 C4.415200233459473,-8 8,-4.415200233459473 8,0 C8,4.415200233459473 4.415200233459473,8 0,8 C-4.415200233459473,8 -8,4.415200233459473 -8,0 C-8,-4.415200233459473 -4.415200233459473,-8 0,-8z"></path></g></g><g transform="matrix(0.949999988079071,0,0,0.949999988079071,966.4986572265625,1740.7874755859375)" opacity="1" style="display: none;"><g opacity="1" transform="matrix(2,0,0,2,0,0)"><path fill="rgb(40,93,96)" fill-opacity="1" d=" M0,-8 C4.415200233459473,-8 8,-4.415200233459473 8,0 C8,4.415200233459473 4.415200233459473,8 0,8 C-4.415200233459473,8 -8,4.415200233459473 -8,0 C-8,-4.415200233459473 -4.415200233459473,-8 0,-8z"></path><path stroke-linecap="butt" stroke-linejoin="miter" fill-opacity="0" stroke-miterlimit="4" stroke="rgb(243,241,236)" stroke-opacity="1" stroke-width="0" d=" M0,-8 C4.415200233459473,-8 8,-4.415200233459473 8,0 C8,4.415200233459473 4.415200233459473,8 0,8 C-4.415200233459473,8 -8,4.415200233459473 -8,0 C-8,-4.415200233459473 -4.415200233459473,-8 0,-8z"></path></g></g><g transform="matrix(0.949999988079071,0,0,0.949999988079071,966.4987182617188,1740.8321533203125)" opacity="1" style="display: none;"><g opacity="1" transform="matrix(2,0,0,2,0,0)"><path fill="rgb(40,93,96)" fill-opacity="1" d=" M0,-8 C4.415200233459473,-8 8,-4.415200233459473 8,0 C8,4.415200233459473 4.415200233459473,8 0,8 C-4.415200233459473,8 -8,4.415200233459473 -8,0 C-8,-4.415200233459473 -4.415200233459473,-8 0,-8z"></path><path stroke-linecap="butt" stroke-linejoin="miter" fill-opacity="0" stroke-miterlimit="4" stroke="rgb(243,241,236)" stroke-opacity="1" stroke-width="0" d=" M0,-8 C4.415200233459473,-8 8,-4.415200233459473 8,0 C8,4.415200233459473 4.415200233459473,8 0,8 C-4.415200233459473,8 -8,4.415200233459473 -8,0 C-8,-4.415200233459473 -4.415200233459473,-8 0,-8z"></path></g></g><g transform="matrix(0.949999988079071,0,0,0.949999988079071,966.4986572265625,1740.7650146484375)" opacity="1" style="display: none;"><g opacity="1" transform="matrix(2,0,0,2,0,0)"><path fill="rgb(40,93,96)" fill-opacity="1" d=" M0,-8 C4.415200233459473,-8 8,-4.415200233459473 8,0 C8,4.415200233459473 4.415200233459473,8 0,8 C-4.415200233459473,8 -8,4.415200233459473 -8,0 C-8,-4.415200233459473 -4.415200233459473,-8 0,-8z"></path><path stroke-linecap="butt" stroke-linejoin="miter" fill-opacity="0" stroke-miterlimit="4" stroke="rgb(243,241,236)" stroke-opacity="1" stroke-width="0" d=" M0,-8 C4.415200233459473,-8 8,-4.415200233459473 8,0 C8,4.415200233459473 4.415200233459473,8 0,8 C-4.415200233459473,8 -8,4.415200233459473 -8,0 C-8,-4.415200233459473 -4.415200233459473,-8 0,-8z"></path></g></g><g transform="matrix(0.949999988079071,0,0,0.949999988079071,966.4987182617188,1740.809814453125)" opacity="1" style="display: none;"><g opacity="1" transform="matrix(2,0,0,2,0,0)"><path fill="rgb(40,93,96)" fill-opacity="1" d=" M0,-8 C4.415200233459473,-8 8,-4.415200233459473 8,0 C8,4.415200233459473 4.415200233459473,8 0,8 C-4.415200233459473,8 -8,4.415200233459473 -8,0 C-8,-4.415200233459473 -4.415200233459473,-8 0,-8z"></path><path stroke-linecap="butt" stroke-linejoin="miter" fill-opacity="0" stroke-miterlimit="4" stroke="rgb(243,241,236)" stroke-opacity="1" stroke-width="0" d=" M0,-8 C4.415200233459473,-8 8,-4.415200233459473 8,0 C8,4.415200233459473 4.415200233459473,8 0,8 C-4.415200233459473,8 -8,4.415200233459473 -8,0 C-8,-4.415200233459473 -4.415200233459473,-8 0,-8z"></path></g></g><g transform="matrix(0.949999988079071,0,0,0.949999988079071,1844.986572265625,315.87396240234375)" opacity="1" style="display: block;"><g opacity="1" transform="matrix(2,0,0,2,0,0)"><path fill="rgb(40,93,96)" fill-opacity="1" d=" M0,-8 C4.415200233459473,-8 8,-4.415200233459473 8,0 C8,4.415200233459473 4.415200233459473,8 0,8 C-4.415200233459473,8 -8,4.415200233459473 -8,0 C-8,-4.415200233459473 -4.415200233459473,-8 0,-8z"></path><path stroke-linecap="butt" stroke-linejoin="miter" fill-opacity="0" stroke-miterlimit="4" stroke="rgb(243,241,236)" stroke-opacity="1" stroke-width="0" d=" M0,-8 C4.415200233459473,-8 8,-4.415200233459473 8,0 C8,4.415200233459473 4.415200233459473,8 0,8 C-4.415200233459473,8 -8,4.415200233459473 -8,0 C-8,-4.415200233459473 -4.415200233459473,-8 0,-8z"></path></g></g><g transform="matrix(0.949999988079071,0,0,0.949999988079071,964.9845581054688,1730.364013671875)" opacity="1" style="display: none;"><g opacity="1" transform="matrix(2,0,0,2,0,0)"><path fill="rgb(40,93,96)" fill-opacity="1" d=" M0,-8 C4.415200233459473,-8 8,-4.415200233459473 8,0 C8,4.415200233459473 4.415200233459473,8 0,8 C-4.415200233459473,8 -8,4.415200233459473 -8,0 C-8,-4.415200233459473 -4.415200233459473,-8 0,-8z"></path><path stroke-linecap="butt" stroke-linejoin="miter" fill-opacity="0" stroke-miterlimit="4" stroke="rgb(243,241,236)" stroke-opacity="1" stroke-width="0" d=" M0,-8 C4.415200233459473,-8 8,-4.415200233459473 8,0 C8,4.415200233459473 4.415200233459473,8 0,8 C-4.415200233459473,8 -8,4.415200233459473 -8,0 C-8,-4.415200233459473 -4.415200233459473,-8 0,-8z"></path></g></g><g transform="matrix(0.949999988079071,0,0,0.949999988079071,964.9974365234375,1740.99267578125)" opacity="1" style="display: none;"><g opacity="1" transform="matrix(2,0,0,2,0,0)"><path fill="rgb(40,93,96)" fill-opacity="1" d=" M0,-8 C4.415200233459473,-8 8,-4.415200233459473 8,0 C8,4.415200233459473 4.415200233459473,8 0,8 C-4.415200233459473,8 -8,4.415200233459473 -8,0 C-8,-4.415200233459473 -4.415200233459473,-8 0,-8z"></path><path stroke-linecap="butt" stroke-linejoin="miter" fill-opacity="0" stroke-miterlimit="4" stroke="rgb(243,241,236)" stroke-opacity="1" stroke-width="0" d=" M0,-8 C4.415200233459473,-8 8,-4.415200233459473 8,0 C8,4.415200233459473 4.415200233459473,8 0,8 C-4.415200233459473,8 -8,4.415200233459473 -8,0 C-8,-4.415200233459473 -4.415200233459473,-8 0,-8z"></path></g></g></g></svg>